<svg xmlns="http://www.w3.org/2000/svg" xmlns:svg="http://www.w3.org/2000/svg" id="svg74" width="44.658" height="54.846" version="1.1" viewBox="0 0 11.816 14.511"><defs id="defs68"><clipPath id="clipPath42" clipPathUnits="userSpaceOnUse"><path id="path40" d="m 687.96,500.244 h 63 v 65.604 h -63 z"/></clipPath><clipPath id="clipPath30" clipPathUnits="userSpaceOnUse"><path id="path28" d="M 704.506,516.89 H 738 v 41.135 h -33.494 z"/></clipPath></defs><metadata id="metadata71"/><g id="layer1" transform="translate(4.36838e-6,-282.48879)"><g id="g24" transform="matrix(0.35277777,0,0,-0.35277777,-248.53406,479.34746)"><g id="g26" clip-path="url(#clipPath30)"><g id="g32" transform="translate(729.3897,548.0862)"><path style="fill:#b0b6bb;fill-opacity:1;fill-rule:nonzero;stroke:none" id="path34" d="m 0,0 c -3.386,0.251 -6.26,-1.892 -7.862,-1.892 -1.627,0 -4.134,1.838 -6.793,1.788 -3.491,-0.051 -6.708,-2.032 -8.508,-5.157 -3.626,-6.294 -0.926,-15.62 2.606,-20.727 1.727,-2.496 3.788,-5.308 6.494,-5.205 2.605,0.102 3.591,1.684 6.74,1.684 3.147,0 4.035,-1.684 6.79,-1.634 2.803,0.052 4.58,2.547 6.295,5.057 1.984,2.896 2.8,5.701 2.848,5.849 -0.062,0.023 -5.465,2.097 -5.519,8.322 -0.049,5.205 4.248,7.707 4.444,7.828 C 5.095,-0.495 1.327,-0.098 0,0"/></g></g></g><g id="g36" transform="matrix(0.35277777,0,0,-0.35277777,-248.53406,479.34746)"><g id="g38" clip-path="url(#clipPath42)"><g id="g44" transform="translate(727.3,551.4576)"><path style="fill:#b0b6bb;fill-opacity:1;fill-rule:nonzero;stroke:none" id="path46" d="M 0,0 C 1.438,1.738 2.406,4.159 2.14,6.567 0.069,6.485 -2.434,5.188 -3.919,3.451 -5.248,1.912 -6.416,-0.553 -6.099,-2.911 -3.792,-3.09 -1.437,-1.739 0,0"/></g></g></g></g></svg>