<svg xmlns="http://www.w3.org/2000/svg" xmlns:svg="http://www.w3.org/2000/svg" id="svg2" width="900" height="161" version="1.1"><metadata id="metadata7"/><g id="layer1" transform="translate(129.47008,-1148.7329)"><g id="Page 1" transform="matrix(0.17893165,0,0,0.17893165,-129.37356,1149.0013)" style="fill:#d8d8d8;fill-rule:evenodd"><g id="BackBone.JS"><path id="Path" d="M 0,0 0,485 361,690.78502 361,550.90277 119.49609,413.23549 119.49609,197 361,334.66728 361,205.78502 0,0 z m 0,0" style="fill:#002a41;stroke:#848484;stroke-width:1"/><path id="path2996" d="M 722,0 722,485 361,690.78502 361,550.90277 602.50391,413.23549 602.50391,197 361,334.66728 361,205.78502 722,0 z m 0,0" style="fill:#0071b5;stroke:#848484;stroke-width:1"/><path id="path2998" d="m 0,896.78502 0,-485 L 361,206 l 0,139.88225 -241.50391,137.66728 0,205.23549 L 361,551.11775 361,691 0,896.78502 z m 0,0" style="fill:#0071b5;stroke:#848484;stroke-width:1"/><path id="path3000" d="m 722,896.78502 0,-485 L 361,206 l 0,139.88225 241.50391,137.66728 0,205.23549 L 361,551.11775 361,691 722,896.78502 z m 0,0" style="fill:#002a41;stroke:#848484;stroke-width:1"/></g></g></g></svg>