<svg xmlns="http://www.w3.org/2000/svg" xmlns:svg="http://www.w3.org/2000/svg" id="svg39" width="62.422" height="56.13" version="1.1" viewBox="0 0 62.422 56.13"><metadata id="metadata43"/><defs id="defs9"><style id="style2">.cls-2{fill:none}.cls-3{fill:#2684ff}.cls-4{fill:url(#New_Gradient_Swatch_1)}</style><linearGradient id="New_Gradient_Swatch_1" x1="64.01" x2="32.99" y1="30.27" y2="54.48" gradientTransform="translate(0.02579294,-6.2598336)" gradientUnits="userSpaceOnUse"><stop id="stop4" offset=".18" stop-color="#0052cc"/><stop id="stop6" offset="1" stop-color="#2684ff"/></linearGradient></defs><title id="title11">Bitbucket-blue</title><polygon id="polygon31" points="24.7 43.51 37.75 43.51 40.9 25.12 21.23 25.12" class="cls-2" transform="translate(0.02579294,-6.2598336)" style="fill:none"/><path id="path33" d="M 2.0257929,1.6632531e-4 A 2,2 0 0 0 0.02579294,2.3201663 L 8.5157929,53.860167 a 2.72,2.72 0 0 0 2.6600001,2.27 h 40.73 a 2,2 0 0 0 2,-1.68 l 8.49,-52.1200007 a 2,2 0 0 0 -2,-2.31999997 z M 37.775793,37.250167 h -13 l -3.52,-18.39 h 19.67 z" class="cls-3" style="fill:#2684ff"/><path id="path35" d="m 59.695793,18.860167 h -18.77 l -3.15,18.39 h -13 l -15.3500001,18.22 a 2.71,2.71 0 0 0 1.7500001,0.66 h 40.74 a 2,2 0 0 0 2,-1.68 z" class="cls-4" style="fill:url(#New_Gradient_Swatch_1)"/></svg>