<svg xmlns="http://www.w3.org/2000/svg" xmlns:svg="http://www.w3.org/2000/svg" id="svg2" width="83.744" height="113.521" version="1.1" viewBox="0 0 83.744 113.521" xml:space="preserve"><metadata id="metadata8"/><g id="g10" transform="matrix(1.3333333,0,0,-1.3333333,0,113.5208)"><path id="path34" d="m 55.741,42.9523 c 0,-22.2144 -10.8859,-40.223 -24.3144,-40.223 -13.4286,0 -24.3141,18.0086 -24.3141,40.223 0,22.2149 10.8855,40.2231 24.3141,40.2231 13.4285,0 24.3144,-18.0082 24.3144,-40.2231" style="fill:#fff;fill-opacity:1;fill-rule:evenodd;stroke:none;stroke-width:.1"/><path id="path36" d="m 31.4074,0 c 18.5887,0 31.4004,8.83086 31.4004,42.5703 0,33.7391 -12.8117,42.5703 -31.4004,42.5703 C 12.818,85.1406 0,76.3094 0,42.5703 0,8.83086 12.818,0 31.4074,0 Z M 27.3305,42.5699 12.1121,57.8277 16.5223,62.2379 28.6488,50.1113 V 79.1754 L 50.6953,57.1289 36.1363,42.5699 50.6953,28.0113 28.6488,5.96484 V 35.0289 L 16.5223,22.902 12.1121,27.3117 Z m 7.5148,-21.5469 7.0395,7.0395 -7.034,7.034 z m 0,43.0938 7.0395,-7.0395 -7.034,-7.0343 -0.0055,14.0738 v 0" style="fill:#176fc1;fill-opacity:1;fill-rule:evenodd;stroke:none;stroke-width:.1"/></g></svg>