<svg xmlns="http://www.w3.org/2000/svg" xmlns:svg="http://www.w3.org/2000/svg" id="Layer_1" width="341.2" height="154.3" x="0" y="0" version="1.1" viewBox="0 0 341.2 154.3" xml:space="preserve"><metadata id="metadata41"/><style id="style2" type="text/css">.st1{fill:#fff}.st2{fill:#f38020}.st3{fill:#faae40}</style><g id="g32" transform="translate(-440.1,-77.9)"><polygon style="fill:#fff" id="polygon26" points="752.9 169.6 710 145 702.6 141.8 527.1 143 527.1 232.1 752.9 232.1" class="st1"/><path style="fill:#f38020" id="path28" d="m 674.8,223.9 c 2.1,-7.2 1.3,-13.8 -2.2,-18.7 -3.2,-4.5 -8.6,-7.1 -15.1,-7.4 l -123.1,-1.6 c -0.8,0 -1.5,-0.4 -1.9,-1 -0.4,-0.6 -0.5,-1.4 -0.3,-2.2 0.4,-1.2 1.6,-2.1 2.9,-2.2 l 124.2,-1.6 C 674,188.5 690,176.6 695.6,162 l 7.1,-18.5 c 0.3,-0.8 0.4,-1.6 0.2,-2.4 -8,-36.2 -40.3,-63.2 -78.9,-63.2 -35.6,0 -65.8,23 -76.6,54.9 -7,-5.2 -15.9,-8 -25.5,-7.1 -17.1,1.7 -30.8,15.4 -32.5,32.5 -0.4,4.4 -0.1,8.7 0.9,12.7 -27.9,0.8 -50.2,23.6 -50.2,51.7 0,2.5 0.2,5 0.5,7.5 0.2,1.2 1.2,2.1 2.4,2.1 h 227.2 c 1.3,0 2.5,-0.9 2.9,-2.2 z" class="st2"/><path style="fill:#faae40" id="path30" d="m 714,144.8 c -1.1,0 -2.3,0 -3.4,0.1 -0.8,0 -1.5,0.6 -1.8,1.4 L 704,163 c -2.1,7.2 -1.3,13.8 2.2,18.7 3.2,4.5 8.6,7.1 15.1,7.4 l 26.2,1.6 c 0.8,0 1.5,0.4 1.9,1 0.4,0.6 0.5,1.5 0.3,2.2 -0.4,1.2 -1.6,2.1 -2.9,2.2 l -27.3,1.6 c -14.8,0.7 -30.7,12.6 -36.3,27.2 l -2,5.1 c -0.4,1 0.3,2 1.4,2 h 93.8 c 1.1,0 2.1,-0.7 2.4,-1.8 1.6,-5.8 2.5,-11.9 2.5,-18.2 0,-37 -30.2,-67.2 -67.3,-67.2" class="st3"/></g></svg>