<svg xmlns="http://www.w3.org/2000/svg" xmlns:svg="http://www.w3.org/2000/svg" id="svg2" width="235.173" height="235.307" version="1.1" viewBox="0 0 235.173 235.307" xml:space="preserve"><metadata id="metadata8"/><g id="g10" transform="matrix(1.3333333,0,0,-1.3333333,0,235.30667)"><g id="g12" transform="scale(0.1)"><path style="fill:#4b73c2;fill-opacity:1;fill-rule:nonzero;stroke:none" id="path14" d="m 882,0 v 342 c 362,0 643,359 504,740 -51,141 -164,254 -305,305 C 700,1525 341,1245 341,883 H 0 c 0,577 558,1027 1163,838 264,-83 475,-293 557,-557 C 1909,558 1460,0 882,0"/><path style="fill:#4b73c2;fill-opacity:1;fill-rule:nonzero;stroke:none" id="path16" d="M 883,341 H 543 V 681 H 883 V 341"/><path style="fill:#4b73c2;fill-opacity:1;fill-rule:nonzero;stroke:none" id="path18" d="M 543,79 H 281 V 341 H 543 V 79"/><path style="fill:#4b73c2;fill-opacity:1;fill-rule:nonzero;stroke:none" id="path20" d="M 281,341 H 62 V 560 H 281 V 341"/></g></g></svg>