<svg xmlns="http://www.w3.org/2000/svg" xmlns:svg="http://www.w3.org/2000/svg" id="svg64" width="33.319" height="40.089" version="1.1" viewBox="0 0 33.319 40.089"><metadata id="metadata70"/><path id="path60" d="M 3.2,7.7894427 H 7 c 0.2,0 0.4,-0.2 0.4,-0.4 0,0 0,-3.2 0,-4.1 0,-0.7 0.2,-1.4 0.4,-1.9 l 0.1,-0.3 -7.4,7.3 c 0.2,-0.1 0.4,-0.2 0.4,-0.2 0.6,-0.3 1.4,-0.4 2.3,-0.4 z m 29.2,-0.7 c -0.3,-1.6 -1.2,-2.3 -2.1,-2.6 -0.9,-0.3 -1.8,-0.7 -4.2,-1 -1.9,-0.2 -3.9,-0.3 -5.3,-0.3 -0.4,-1.1 -1,-2.29999998 -3.3,-2.89999998 -1.6,-0.4 -4.5,-0.3 -5.4,-0.2 -1.4,0.2 -1.9,0.8 -2.3,1.19999998 -0.4,0.4 -0.7,1.5 -0.7,2.2 0,0.4 0,1.2 0,2.2 0,0.9 0,0.9 0,1.7 0,1.2 -0.8,2.1 -2.2,2.1 H 3.5 c -0.8,0 -1.4,0.1 -1.9,0.3 -0.4,0.3000003 -0.8,0.7000003 -1,1.0000003 -0.5,0.7 -0.6,1.5 -0.6,2.4 0,0 0,0.7 0.2,2 0.1,1 1.2,7.6 2.2,9.8 0.4,0.9 0.7,1.2 1.5,1.6 1.8,0.8 5.9,1.6 7.9,1.9 1.9,0.2 3.2,0.8 3.9,-0.7 0,0 0.1,-0.4 0.3,-0.9 0.6,-1.9 0.7,-3.6 0.7,-4.8 0,-0.1 0.2,-0.1 0.2,0 0,0.9 -0.2,3.9 2.1,4.7 0.9,0.3 2.8,0.6 4.7,0.8 1.7,0.2 3,0.9 3,5.3 0,2.7 -0.6,3.1 -3.5,3.1 -2.4,0 -3.3,0.1 -3.3,-1.9 0,-1.5 1.5,-1.4 2.7,-1.4 0.5,0 0.1,-0.4 0.1,-1.3 0,-1 0.6,-1.5 0,-1.5 -3.9,-0.1 -6.2,0 -6.2,4.9 0,4.5 1.7,5.3 7.3,5.3 4.4,0 5.9,-0.1 7.7,-5.7 0.4,-1.1 1.2,-4.5 1.7,-10.1 0.4,-3.7 -0.3,-14.5000003 -0.8,-17.2000003 z M 24.8,18.989443 c -0.5,0 -0.8,0 -1.3,0.1 -0.1,0 -0.1,0 -0.2,0 0,0 -0.1,0 -0.1,-0.1 0,-0.1 0,-0.1 0,-0.1 0.2,-1 0.7,-2.2 2.2,-2.2 1.6,0.1 2,1.5 2,2.6 0,0.1 0,0.1 0,0.1 0,0.1 -0.1,0.1 -0.1,0.1 -0.1,0 -0.1,0 -0.1,-0.1 -0.7,-0.2 -1.5,-0.3 -2.4,-0.4 z" style="fill:#848484"/></svg>