<svg xmlns="http://www.w3.org/2000/svg" xmlns:svg="http://www.w3.org/2000/svg" id="svg29" width="200" height="228" version="1.1" viewBox="0 0 200 228" xml:space="preserve"><metadata id="metadata35"/><defs id="defs33"><clipPath id="clipPath47" clipPathUnits="userSpaceOnUse"><path id="path45" d="m 1226.38,862.832 153.98,152.958 c 159.52,158.46 159.52,416.53 0,574.98 -159.51,158.45 -419.317,158.45 -578.833,0 l -56.066,-55.7 C 671.23,1640.97 548.828,1710 409.055,1710 183.207,1710 0,1528.02 0,1303.68 V 422.777 C 0,198.434 183.207,16.4531 409.055,16.4531 c 139.773,0 262.175,69.0274 336.406,174.9219 l 56.066,-55.691 c 159.516,-158.4535 419.323,-158.4535 578.833,0 159.52,158.449 159.52,416.523 0,574.972 z"/></clipPath><clipPath id="clipPath53" clipPathUnits="userSpaceOnUse"><path id="path51" d="M 0,0 H 1500 V 1710 H 0 Z"/></clipPath></defs><g id="g37" transform="matrix(1.3333333,0,0,-1.3333333,0,228)"><g id="g39" transform="scale(0.1)"><g id="g41"><g id="g43" clip-path="url(#clipPath47)"><g id="g49" clip-path="url(#clipPath53)"><path style="fill:#044651;fill-opacity:1;fill-rule:nonzero;stroke:none" id="path55" d="M 0,0 H 1650 V 1860 H 0 Z"/></g></g></g></g></g></svg>