<svg xmlns="http://www.w3.org/2000/svg" xmlns:svg="http://www.w3.org/2000/svg" id="svg2" width="512" height="512" version="1.1" viewBox="0 0 512 512" xml:space="preserve"><metadata id="metadata8"/><g id="g10" transform="matrix(1.3333333,0,0,-1.3333333,0,512)"><g id="g30" transform="scale(2.6665927)"><path style="fill:#0977b6;fill-opacity:1;fill-rule:nonzero;stroke:none;stroke-width:.1" id="path14" d="M 133.344,144 H 10.6289 C 4.76484,144 0,139.352 0,133.623 V 10.3891 C 0,4.65508 4.76484,0 10.6289,0 H 133.344 c 5.875,0 10.66,4.65508 10.66,10.3891 V 133.623 c 0,5.729 -4.785,10.377 -10.66,10.377"/></g><path id="path16" d="m 85.422697,331.12148 c 18.206693,0 33.006283,-14.79692 33.006283,-33.00975 0,-18.23149 -14.79959,-33.02948 -33.006283,-33.02948 -18.254693,0 -33.028417,14.79799 -33.028417,33.02948 0,18.21283 14.773724,33.00975 33.028417,33.00975 M 56.930688,240.03201 H 113.88751 V 56.779758 H 56.930688 V 240.03201" style="fill:#fff;fill-opacity:1;fill-rule:nonzero;stroke:none;stroke-width:.26665926"/><path id="path18" d="m 149.61265,240.03201 h 54.62328 v -25.04117 h 0.76372 c 7.60272,14.40893 26.18247,29.59704 53.88997,29.59704 57.67493,0 68.32264,-37.95494 68.32264,-87.28904 V 56.779758 H 270.2965 v 89.118332 c 0,21.24927 -0.39199,48.58292 -29.59598,48.58292 -29.63251,0 -34.18225,-23.1463 -34.18225,-47.04643 V 56.779758 H 149.61265 V 240.03201" style="fill:#fff;fill-opacity:1;fill-rule:nonzero;stroke:none;stroke-width:.26665926"/></g></svg>