<svg xmlns="http://www.w3.org/2000/svg" xmlns:svg="http://www.w3.org/2000/svg" id="svg2" width="325.313" height="325.312" version="1.1" viewBox="0 0 325.313 325.312" xml:space="preserve"><metadata id="metadata8"/><defs id="defs6"><clipPath id="clipPath18" clipPathUnits="userSpaceOnUse"><path id="path16" d="M 0,243.984 H 243.985 V 0 H 0 Z"/></clipPath></defs><g id="g10" transform="matrix(1.3333333,0,0,-1.3333333,0,325.312)"><g id="g12"><g id="g14" clip-path="url(#clipPath18)"><g id="g20" transform="translate(243.984,121.9921)"><path style="fill:#fff;fill-opacity:1;fill-rule:nonzero;stroke:none" id="path22" d="m 0,0 c 0,-67.375 -54.618,-121.992 -121.992,-121.992 -67.374,0 -121.992,54.617 -121.992,121.992 0,67.375 54.618,121.992 121.992,121.992 C -54.618,121.992 0,67.375 0,0"/></g><g id="g24" transform="translate(121.9919,243.9842)"><path style="fill:#bd081c;fill-opacity:1;fill-rule:nonzero;stroke:none" id="path26" d="m 0,0 c -67.374,0 -121.992,-54.618 -121.992,-121.992 0,-51.681 32.155,-95.863 77.535,-113.638 -1.066,9.652 -2.029,24.496 0.424,35.033 2.216,9.52 14.304,60.638 14.304,60.638 0,0 -3.649,7.308 -3.649,18.112 0,16.963 9.832,29.627 22.074,29.627 10.408,0 15.435,-7.815 15.435,-17.185 0,-10.466 -6.664,-26.115 -10.103,-40.617 -2.874,-12.143 6.089,-22.045 18.065,-22.045 21.682,0 38.349,22.862 38.349,55.864 0,29.208 -20.988,49.631 -50.957,49.631 -34.71,0 -55.085,-26.035 -55.085,-52.942 0,-10.484 4.039,-21.728 9.079,-27.839 0.997,-1.208 1.143,-2.267 0.847,-3.499 -0.927,-3.854 -2.985,-12.14 -3.389,-13.835 -0.532,-2.233 -1.768,-2.706 -4.08,-1.632 -15.236,7.093 -24.762,29.368 -24.762,47.261 0,38.482 27.96,73.822 80.605,73.822 42.319,0 75.206,-30.155 75.206,-70.456 0,-42.044 -26.509,-75.88 -63.303,-75.88 -12.361,0 -23.983,6.422 -27.961,14.008 0,0 -6.117,-23.292 -7.6,-28.999 -2.754,-10.597 -10.189,-23.879 -15.162,-31.981 11.414,-3.534 23.544,-5.441 36.12,-5.441 67.375,0 121.993,54.618 121.993,121.993 C 121.993,-54.618 67.375,0 0,0"/></g></g></g></g></svg>