<svg xmlns="http://www.w3.org/2000/svg" xmlns:xlink="http://www.w3.org/1999/xlink" width="494" height="447" version="1.1" viewBox="0 0 494 447"><title>Group</title><desc>Created with Sketch.</desc><g id="Page-1" fill="none" fill-rule="evenodd" stroke="none" stroke-width="1"><g id="Sketch-Flat-Logo" transform="translate(-9.000000, -28.000000)"><g id="Group" transform="translate(9.000000, 28.000000)"><g id="Base" fill="#FFAE00"><polygon id="Polygon" points="247 0 494 287 387 432 247 447 107 432 0 287" transform="translate(247.000000, 223.500000) rotate(-180.000000) translate(-247.000000, -223.500000)"/></g><g id="Bottom-Back" fill="#EC6C00" transform="translate(0.000000, 160.000000)"><polygon id="Polygon" points="247 0 494 287 0 287" transform="translate(247.000000, 143.500000) rotate(-180.000000) translate(-247.000000, -143.500000)"/></g><g id="Bottom-Mid" fill="#FFAE00" transform="translate(100.000000, 160.000000)"><polygon id="Polygon" points="147 0 294 287 0 287" transform="translate(147.000000, 143.500000) rotate(-180.000000) translate(-147.000000, -143.500000)"/></g><g id="Top-Mid" fill="#FFEFB4" transform="translate(100.000000, 0.000000)"><polygon id="Polygon" points="147 160 294 0 0 0" transform="translate(147.000000, 80.000000) rotate(-180.000000) translate(-147.000000, -80.000000)"/></g><g id="Top-Side-Left" fill="#FFAE00" transform="translate(0.000000, 15.000000)"><polygon id="Polygon" points="0 145 55 72 107 0 6 0" transform="translate(53.500000, 72.500000) rotate(-180.000000) translate(-53.500000, -72.500000)"/></g><g id="Top-Side-Right" fill="#FFAE00" transform="translate(440.500000, 87.500000) scale(-1, 1) translate(-440.500000, -87.500000) translate(387.000000, 15.000000)"><polygon id="Polygon" points="0 145 55 72 107 0 6 0" transform="translate(53.500000, 72.500000) rotate(-180.000000) translate(-53.500000, -72.500000)"/></g><g id="Top-Left" fill="#FED305" transform="translate(100.000000, 0.000000)"><polygon id="Polygon" points="140 145 147 0 0 160" transform="translate(73.500000, 80.000000) rotate(-180.000000) translate(-73.500000, -80.000000)"/></g><g id="Top-Right" fill="#FED305" transform="translate(247.000000, 0.000000)"><polygon id="Polygon" points="140 145 147 0 0 160" transform="translate(73.500000, 80.000000) scale(-1, 1) rotate(-180.000000) translate(-73.500000, -80.000000)"/></g></g></g></g></svg>