<svg xmlns="http://www.w3.org/2000/svg" xmlns:svg="http://www.w3.org/2000/svg" id="svg2" width="512" height="512.888" version="1.1" viewBox="0 0 512 512.888" xml:space="preserve"><metadata id="metadata8"/><defs id="defs6"><clipPath id="clipPath18" clipPathUnits="userSpaceOnUse"><path id="path16" d="M 0,612 H 792 V 0 H 0 Z"/></clipPath></defs><g id="g10" transform="matrix(1.3333333,0,0,-1.3333333,3.4250666e-6,512.88845)"><g id="g64" transform="matrix(4.2173704,0,0,4.2173704,191.66683,384.66635)"><path style="fill:#231f20;fill-opacity:1;fill-rule:nonzero;stroke:none" id="path66" d="m 0,0 c -23.956,0 -43.582,-18.472 -45.447,-41.947 l 24.443,-10.106 c 2.071,1.416 4.573,2.244 7.265,2.244 0.241,0 0.481,-0.006 0.719,-0.02 l 10.871,15.756 c 0,0.075 -0.002,0.148 -0.002,0.223 0,9.483 7.715,17.199 17.199,17.199 9.483,0 17.199,-7.716 17.199,-17.199 0,-9.484 -7.716,-17.2 -17.199,-17.2 -0.131,0 -0.26,0.003 -0.39,0.006 L -0.845,-62.106 c 0.008,-0.202 0.015,-0.407 0.015,-0.611 0,-7.119 -5.791,-12.91 -12.909,-12.91 -6.249,0 -11.473,4.461 -12.657,10.367 l -17.481,7.227 c 5.413,-19.143 23,-33.177 43.877,-33.177 25.187,0 45.605,20.419 45.605,45.605 C 45.605,-20.418 25.187,0 0,0"/></g><g id="g68" transform="matrix(4.2173704,0,0,4.2173704,120.52823,92.83107)"><path style="fill:#231f20;fill-opacity:1;fill-rule:nonzero;stroke:none" id="path70" d="m 0,0 -5.602,2.314 c 0.993,-2.067 2.711,-3.797 4.991,-4.748 4.929,-2.054 10.613,0.286 12.668,5.218 0.994,2.388 1.001,5.021 0.015,7.413 C 11.087,12.59 9.228,14.456 6.84,15.452 4.47,16.438 1.931,16.401 -0.3,15.56 L 5.487,13.167 C 9.123,11.651 10.842,7.476 9.327,3.84 7.813,0.204 3.636,-1.516 0,0"/></g><g id="g72" transform="matrix(4.2173704,0,0,4.2173704,218.90345,241.99018)"><path style="fill:#231f20;fill-opacity:1;fill-rule:nonzero;stroke:none" id="path74" d="m 0,0 c 0,4.755 3.855,8.608 8.609,8.608 4.755,0 8.609,-3.853 8.609,-8.608 0,-4.755 -3.854,-8.608 -8.609,-8.608 C 3.855,-8.608 0,-4.755 0,0 m 20.05,-0.02 c 0,6.319 -5.141,11.461 -11.46,11.461 -6.319,0 -11.46,-5.142 -11.46,-11.461 0,-6.319 5.141,-11.459 11.46,-11.459 6.319,0 11.46,5.14 11.46,11.459"/></g></g></svg>