<svg xmlns="http://www.w3.org/2000/svg" xmlns:svg="http://www.w3.org/2000/svg" id="svg31" width="63" height="63.04" version="1.1" viewBox="0 0 63 63.04"><metadata id="metadata35"/><defs id="defs9"><style id="style2">.cls-2{fill:url(#New_Gradient_Swatch_1)}</style><linearGradient id="New_Gradient_Swatch_1" x1="31.52" x2="31.52" y1="-6412.98" y2="-6349.93" gradientTransform="matrix(1,0,0,-1,0,-6348.42)" gradientUnits="userSpaceOnUse"><stop id="stop4" offset=".18" stop-color="#0052cc"/><stop id="stop6" offset="1" stop-color="#2684ff"/></linearGradient></defs><title id="title11">Trello-icon-blue-white</title><g id="Layer_2-2" data-name="Layer 2" transform="translate(0,-1.51)"><g id="Layer_1-2" data-name="Layer 1-2"><path id="path25" d="M 55.16,1.51 H 7.88 A 7.88,7.88 0 0 0 0,9.39 v 47.28 a 7.88,7.88 0 0 0 7.88,7.88 H 55.16 A 7.88,7.88 0 0 0 63,56.67 V 9.39 A 7.88,7.88 0 0 0 55.16,1.51 Z M 27.42,49.26 A 3.78,3.78 0 0 1 23.64,53 H 12 A 3.78,3.78 0 0 1 8.2,49.26 v 0 -35.77 A 3.78,3.78 0 0 1 12,9.71 h 11.64 a 3.78,3.78 0 0 1 3.78,3.78 z M 54.85,33.5 a 3.78,3.78 0 0 1 -3.78,3.78 H 39.4 A 3.78,3.78 0 0 1 35.62,33.5 v -20 A 3.78,3.78 0 0 1 39.4,9.71 h 11.67 a 3.78,3.78 0 0 1 3.78,3.78 v 0 z" class="cls-2" style="fill:url(#New_Gradient_Swatch_1)"/></g></g></svg>