<svg xmlns="http://www.w3.org/2000/svg" xmlns:svg="http://www.w3.org/2000/svg" id="svg2" width="512" height="512" version="1.1"><defs id="defs4"><linearGradient id="linearGradient3862"><stop style="stop-color:#734019;stop-opacity:1" id="stop4594" offset="0"/><stop style="stop-color:#8e4e22;stop-opacity:1" id="stop4596" offset="1"/></linearGradient><linearGradient id="linearGradient3862-3"><stop id="stop3864" offset="0" style="stop-color:#734019;stop-opacity:1"/><stop id="stop3866" offset="1" style="stop-color:#8e4e22;stop-opacity:1"/></linearGradient><linearGradient id="linearGradient3842"><stop style="stop-color:#e17e24;stop-opacity:1" id="stop3844" offset="0"/><stop style="stop-color:#924f21;stop-opacity:1" id="stop3846" offset="1"/></linearGradient></defs><metadata id="metadata7"/><g id="layer1" transform="translate(253.95276,-640.18109)"><rect style="fill:#ffce0d;fill-opacity:1;stroke:none;stroke-width:.40894568" id="rect3909" width="512" height="512" x="-253.953" y="640.181"/><path id="path3858" d="m 128.0981,1072.5463 c 37.69433,15.9104 92.56787,-21.0937 89.24755,-61.7312 l -113.65858,-164.32136 -39.137998,-21.4097 -87.620764,-94.07087 -1.576539,-6.90068 -5.985014,-1.72072 -0.846951,-6.87284 c -15.871309,1.52995 -26.383855,8.80128 -33.032408,22.84802 l 6.25226,3.13407 0.219351,5.70874 5.900787,3.90965 58.5522426,114.17713 8.0274694,42.92838 z" style="fill:#734019;fill-opacity:1;stroke:none;stroke-width:.40894568;stroke-opacity:1"/><path style="fill:#e17e24;fill-opacity:1;stroke:none;stroke-width:.40894568;stroke-opacity:1" id="path3840" d="m -215.08239,1010.9521 c -2.13234,40.8589 51.33775,79.8635 88.41951,62.9115 l 115.831771,-162.79682 6.8120658,-44.08802 58.6360152,-114.40517 5.952208,-3.83091 -0.418838,-6.21335 6.174344,-3.1354 C 59.484664,724.99069 49.069689,717.58028 33.598758,716.10905 l -0.819188,6.94565 -5.293323,2.14909 -1.668094,6.87911 -87.434828,93.91449 -37.633939,22.1579 z"/></g></svg>