<svg xmlns="http://www.w3.org/2000/svg" xmlns:svg="http://www.w3.org/2000/svg" id="svg3816" width="191.24" height="191.241" version="1.1" viewBox="0 0 50.599 50.599"><defs id="defs3810"><clipPath id="clipPath104" clipPathUnits="userSpaceOnUse"><path id="path102" d="m 255.338,282.431 c -16.177,0 -29.413,-13.238 -29.413,-29.419 v 0 -84.599 c 0,-16.178 13.236,-29.413 29.413,-29.413 v 0 h 84.602 c 16.095,0 29.28,13.1 29.415,29.166 v 0 85.094 c -0.135,16.068 -13.32,29.171 -29.415,29.171 v 0 z"/></clipPath><linearGradient id="linearGradient120" x1="0" x2="1" y1="0" y2="0" gradientTransform="matrix(0,143.00507,-143.00507,0,297.63998,139.26192)" gradientUnits="userSpaceOnUse" spreadMethod="pad"><stop style="stop-opacity:1;stop-color:#00b70c" id="stop110" offset="0"/><stop style="stop-opacity:1;stop-color:#00b70c" id="stop112" offset=".002"/><stop style="stop-opacity:1;stop-color:#00d50c" id="stop114" offset=".949"/><stop style="stop-opacity:1;stop-color:#00d50c" id="stop116" offset=".952"/><stop style="stop-opacity:1;stop-color:#00d50c" id="stop118" offset="1"/></linearGradient><clipPath id="clipPath130" clipPathUnits="userSpaceOnUse"><path id="path128" d="M 225.925,139 H 369.354 V 282.43 H 225.925 Z"/></clipPath></defs><metadata id="metadata3813"/><g id="layer1" transform="translate(3.1275e-7,-246.40073)"><g id="g98" transform="matrix(0.35277777,0,0,-0.35277777,-79.701318,346.03611)"><g id="g100" clip-path="url(#clipPath104)"><g id="g106"><g id="g108"><path style="fill:url(#linearGradient120);stroke:none" id="path122" d="m 255.338,282.431 c -16.177,0 -29.413,-13.238 -29.413,-29.419 v 0 -84.599 c 0,-16.178 13.236,-29.413 29.413,-29.413 v 0 h 84.602 c 16.095,0 29.28,13.1 29.415,29.166 v 0 85.094 c -0.135,16.068 -13.32,29.171 -29.415,29.171 v 0 z"/></g></g></g></g><g id="g124" transform="matrix(0.35277777,0,0,-0.35277777,-79.701318,346.03611)"><g id="g126" clip-path="url(#clipPath130)"><g id="g132" transform="translate(343.6903,174.8701)"><path style="fill:#fff;fill-opacity:1;fill-rule:nonzero;stroke:none" id="path134" d="m 0,0 c 7.385,5.352 12.105,13.271 12.105,22.066 0,16.124 -15.686,29.194 -35.033,29.194 -19.348,0 -35.033,-13.07 -35.033,-29.194 0,-16.123 15.685,-29.193 35.033,-29.193 3.997,0 7.857,0.571 11.435,1.6 0.325,0.1 0.671,0.154 1.03,0.154 0.672,0 1.284,-0.205 1.86,-0.539 l 7.669,-4.427 c 0.215,-0.124 0.421,-0.218 0.675,-0.218 0.646,0 1.167,0.523 1.167,1.169 0,0.287 -0.114,0.577 -0.188,0.853 -0.044,0.165 -0.989,3.688 -1.578,5.889 -0.067,0.247 -0.122,0.485 -0.122,0.744 0,0.784 0.386,1.478 0.98,1.902 m -34.607,26.737 c -2.578,0 -4.67,2.091 -4.67,4.672 0,2.579 2.092,4.671 4.67,4.671 2.582,0 4.672,-2.092 4.672,-4.671 0,-2.581 -2.09,-4.672 -4.672,-4.672 m 23.356,0 c -2.579,0 -4.671,2.091 -4.671,4.672 0,2.579 2.092,4.671 4.671,4.671 2.581,0 4.671,-2.092 4.671,-4.671 0,-2.581 -2.09,-4.672 -4.671,-4.672"/></g><g id="g136" transform="translate(281.5243,258.3613)"><path style="fill:#fff;fill-opacity:1;fill-rule:nonzero;stroke:none" id="path138" d="m 0,0 c -23.218,0 -42.04,-15.686 -42.04,-35.034 0,-10.556 5.663,-20.057 14.526,-26.479 0.712,-0.508 1.177,-1.341 1.177,-2.284 0,-0.309 -0.067,-0.595 -0.148,-0.892 -0.707,-2.64 -1.841,-6.868 -1.894,-7.066 -0.088,-0.331 -0.225,-0.678 -0.225,-1.024 0,-0.775 0.626,-1.402 1.401,-1.402 0.304,0 0.553,0.114 0.809,0.262 l 9.204,5.313 c 0.692,0.4 1.425,0.646 2.232,0.646 0.43,0 0.844,-0.065 1.236,-0.185 4.293,-1.234 8.925,-1.921 13.722,-1.921 0.775,0 1.544,0.02 2.309,0.055 -0.913,2.733 -1.412,5.611 -1.412,8.586 0,17.645 17.165,31.951 38.341,31.951 0.767,0 1.526,-0.024 2.283,-0.062 C 38.355,-12.799 20.973,0 0,0 m -14.014,-29.428 c -3.095,0 -5.604,2.509 -5.604,5.605 0,3.096 2.509,5.606 5.604,5.606 3.097,0 5.606,-2.51 5.606,-5.606 0,-3.096 -2.509,-5.605 -5.606,-5.605 m 28.027,0 c -3.096,0 -5.605,2.509 -5.605,5.605 0,3.096 2.509,5.606 5.605,5.606 3.096,0 5.606,-2.51 5.606,-5.606 0,-3.096 -2.51,-5.605 -5.606,-5.605"/></g></g></g></g></svg>