<svg xmlns="http://www.w3.org/2000/svg" xmlns:svg="http://www.w3.org/2000/svg" id="svg2" width="161.98" height="113.387" version="1.1" viewBox="0 0 161.98 113.387" xml:space="preserve"><metadata id="metadata8"/><defs id="defs6"><clipPath id="clipPath18" clipPathUnits="userSpaceOnUse"><path id="path16" d="M 0,255.118 H 550.024 V 0 H 0 Z"/></clipPath></defs><g id="g10" transform="matrix(1.3333333,0,0,-1.3333333,0,113.38668)"><g id="g20" transform="translate(118.946,71.761009)"><path style="fill:red;fill-opacity:1;fill-rule:nonzero;stroke:none" id="path22" d="m 0,0 c -1.397,5.227 -5.514,9.343 -10.741,10.74 -9.474,2.539 -47.463,2.539 -47.463,2.539 0,0 -37.989,0 -47.463,-2.539 -5.227,-1.397 -9.344,-5.513 -10.741,-10.74 -2.538,-9.474 -2.538,-29.241 -2.538,-29.241 0,0 0,-19.767 2.538,-29.24 1.397,-5.227 5.514,-9.344 10.741,-10.741 9.474,-2.539 47.463,-2.539 47.463,-2.539 0,0 37.989,0 47.463,2.539 5.227,1.397 9.344,5.514 10.741,10.741 2.539,9.473 2.539,29.24 2.539,29.24 0,0 0,19.767 -2.539,29.241"/></g><g id="g24" transform="translate(48.5934,24.297109)"><path style="fill:#fff;fill-opacity:1;fill-rule:nonzero;stroke:none" id="path26" d="M 0,0 31.562,18.223 0,36.446 Z"/></g></g></svg>